<svg xmlns="http://www.w3.org/2000/svg" viewBox="0 0 512 512" width="512" height="512">
  <rect width="512" height="512" rx="96" fill="#0b1d26"/>
  <circle cx="256" cy="256" r="150" fill="#00afca"/>
  <circle cx="256" cy="256" r="86" fill="#fec50c"/>
  <g fill="#fec50c">
    <rect x="248" y="40" width="16" height="52" rx="8"/>
    <rect x="248" y="420" width="16" height="52" rx="8"/>
    <rect x="40" y="248" width="52" height="16" rx="8"/>
    <rect x="420" y="248" width="52" height="16" rx="8"/>
    <rect x="104" y="104" width="16" height="52" rx="8" transform="rotate(-45 112 130)"/>
    <rect x="392" y="356" width="16" height="52" rx="8" transform="rotate(-45 400 382)"/>
    <rect x="356" y="104" width="16" height="52" rx="8" transform="rotate(45 364 130)"/>
    <rect x="104" y="356" width="16" height="52" rx="8" transform="rotate(45 112 382)"/>
  </g>
</svg>
